<svg width="35" height="35" viewBox="0 0 35 35" fill="none" xmlns="http://www.w3.org/2000/svg">
<path d="M6.2125 27.3438C8.05 26.0604 9.87292 25.076 11.6812 24.3906C13.4896 23.7052 15.4292 23.3625 17.5 23.3625C19.5708 23.3625 21.5177 23.7052 23.3406 24.3906C25.1635 25.076 26.9937 26.0604 28.8312 27.3438C30.1146 25.7687 31.026 24.1792 31.5656 22.575C32.1052 20.9708 32.375 19.2792 32.375 17.5C32.375 13.2708 30.9531 9.73438 28.1094 6.89062C25.2656 4.04688 21.7292 2.625 17.5 2.625C13.2708 2.625 9.73438 4.04688 6.89062 6.89062C4.04688 9.73438 2.625 13.2708 2.625 17.5C2.625 19.2792 2.90208 20.9708 3.45625 22.575C4.01042 24.1792 4.92917 25.7687 6.2125 27.3438ZM17.4919 18.8125C15.8056 18.8125 14.3865 18.2337 13.2344 17.0762C12.0823 15.9187 11.5062 14.4969 11.5062 12.8106C11.5062 11.1244 12.085 9.70521 13.2425 8.55312C14.4 7.40104 15.8219 6.825 17.5081 6.825C19.1944 6.825 20.6135 7.40375 21.7656 8.56126C22.9177 9.71877 23.4937 11.1406 23.4937 12.8269C23.4937 14.5131 22.915 15.9323 21.7575 17.0844C20.6 18.2365 19.1781 18.8125 17.4919 18.8125ZM17.5205 35C15.1152 35 12.8479 34.5406 10.7188 33.6219C8.58958 32.7031 6.73021 31.449 5.14062 29.8594C3.55104 28.2698 2.29688 26.4138 1.37812 24.2915C0.459375 22.1691 0 19.9014 0 17.4884C0 15.0753 0.459375 12.8115 1.37812 10.6969C2.29688 8.58229 3.55104 6.73021 5.14062 5.14062C6.73021 3.55104 8.58617 2.29688 10.7085 1.37812C12.8309 0.459375 15.0986 0 17.5116 0C19.9247 0 22.1885 0.459375 24.3031 1.37812C26.4177 2.29688 28.2698 3.55104 29.8594 5.14062C31.449 6.73021 32.7031 8.58276 33.6219 10.6983C34.5406 12.8138 35 15.0742 35 17.4795C35 19.8848 34.5406 22.1521 33.6219 24.2812C32.7031 26.4104 31.449 28.2698 29.8594 29.8594C28.2698 31.449 26.4172 32.7031 24.3017 33.6219C22.1862 34.5406 19.9258 35 17.5205 35ZM17.5 32.375C19.1042 32.375 20.6719 32.1417 22.2031 31.675C23.7344 31.2083 25.2437 30.3917 26.7312 29.225C25.2437 28.175 23.7271 27.3729 22.1812 26.8188C20.6354 26.2646 19.075 25.9875 17.5 25.9875C15.925 25.9875 14.3646 26.2646 12.8187 26.8188C11.2729 27.3729 9.75625 28.175 8.26875 29.225C9.75625 30.3917 11.2656 31.2083 12.7969 31.675C14.3281 32.1417 15.8958 32.375 17.5 32.375ZM17.5 16.1875C18.4917 16.1875 19.301 15.874 19.9281 15.2469C20.5552 14.6198 20.8687 13.8104 20.8687 12.8187C20.8687 11.8271 20.5552 11.0177 19.9281 10.3906C19.301 9.76354 18.4917 9.45 17.5 9.45C16.5083 9.45 15.699 9.76354 15.0719 10.3906C14.4448 11.0177 14.1312 11.8271 14.1312 12.8187C14.1312 13.8104 14.4448 14.6198 15.0719 15.2469C15.699 15.874 16.5083 16.1875 17.5 16.1875Z" fill="#D9D9D9"/>
</svg>
