<svg width="55" height="55" viewBox="0 0 55 55" fill="none" xmlns="http://www.w3.org/2000/svg">
<path d="M13.8188 44.0551C13.1771 44.0551 12.5469 43.7338 11.9281 43.0914C11.3094 42.4489 11 41.8064 11 41.164V34.418H45.375V11.0138H52.25C52.8917 11.0138 53.5104 11.335 54.1063 11.9775C54.7021 12.6199 55 13.2854 55 13.9737V55L44.0688 44.0551H13.8188ZM0 41.3016V2.89111C0 2.24864 0.297917 1.60617 0.89375 0.963705C1.48958 0.321235 2.10833 0 2.75 0H38.4313C39.1188 0 39.7604 0.309762 40.3563 0.929287C40.9521 1.54881 41.25 2.20275 41.25 2.89111V27.3967C41.25 28.0392 40.9521 28.6817 40.3563 29.3242C39.7604 29.9666 39.1188 30.2879 38.4313 30.2879H11L0 41.3016ZM37.125 26.1577V4.13016H4.125V31.6646L9.2125 26.1577H37.125Z" fill="#D9D9D9"/>
</svg>
