<svg width="17" height="17" viewBox="0 0 17 17" fill="none" xmlns="http://www.w3.org/2000/svg">
<path d="M15.9611 17L9.75139 10.7903C9.27917 11.1995 8.72856 11.5183 8.09958 11.7465C7.47059 11.9748 6.80129 12.0889 6.09167 12.0889C4.38912 12.0889 2.9482 11.4986 1.76892 10.3181C0.58964 9.1375 0 7.71296 0 6.04444C0 4.37593 0.590278 2.95139 1.77083 1.77083C2.95139 0.590278 4.37986 0 6.05625 0C7.73264 0 9.15718 0.590278 10.3299 1.77083C11.5025 2.95139 12.0889 4.37711 12.0889 6.04799C12.0889 6.72248 11.9787 7.37454 11.7583 8.00417C11.538 8.6338 11.2074 9.22407 10.7667 9.775L17 15.9611L15.9611 17ZM6.06806 10.6722C7.34699 10.6722 8.43409 10.2197 9.32934 9.31458C10.2246 8.40949 10.6722 7.31944 10.6722 6.04444C10.6722 4.76944 10.2246 3.6794 9.32934 2.77431C8.43409 1.86921 7.34699 1.41667 6.06806 1.41667C4.77601 1.41667 3.67776 1.86921 2.77331 2.77431C1.86888 3.6794 1.41667 4.76944 1.41667 6.04444C1.41667 7.31944 1.86888 8.40949 2.77331 9.31458C3.67776 10.2197 4.77601 10.6722 6.06806 10.6722Z" fill="#5D5D5D"/>
</svg>
