<svg width="81" height="81" viewBox="0 0 81 81" fill="none" xmlns="http://www.w3.org/2000/svg">
<rect x="1" width="80" height="80" rx="40" fill="#D9D9D9"/>
<path d="M14.3775 63.2812C18.63 60.3112 22.8488 58.0331 27.0338 56.4469C31.2188 54.8606 35.7075 54.0675 40.5 54.0675C45.2925 54.0675 49.7981 54.8606 54.0169 56.4469C58.2356 58.0331 62.4712 60.3112 66.7237 63.2812C69.6937 59.6362 71.8031 55.9575 73.0519 52.245C74.3006 48.5325 74.925 44.6175 74.925 40.5C74.925 30.7125 71.6344 22.5281 65.0531 15.9469C58.4719 9.36563 50.2875 6.075 40.5 6.075C30.7125 6.075 22.5281 9.36563 15.9469 15.9469C9.36563 22.5281 6.075 30.7125 6.075 40.5C6.075 44.6175 6.71625 48.5325 7.99875 52.245C9.28125 55.9575 11.4075 59.6362 14.3775 63.2812ZM40.4812 43.5375C36.5787 43.5375 33.2944 42.1981 30.6281 39.5193C27.9619 36.8405 26.6287 33.5499 26.6287 29.6474C26.6287 25.745 27.9682 22.4606 30.647 19.7944C33.3258 17.1281 36.6164 15.795 40.5188 15.795C44.4213 15.795 47.7056 17.1344 50.3719 19.8132C53.0381 22.492 54.3713 25.7826 54.3713 29.6851C54.3713 33.5875 53.0318 36.8719 50.353 39.5381C47.6742 42.2044 44.3836 43.5375 40.4812 43.5375ZM40.5474 81C34.9808 81 29.7337 79.9369 24.8062 77.8106C19.8787 75.6844 15.5756 72.7819 11.8969 69.1031C8.21813 65.4244 5.31563 61.1292 3.18937 56.2174C1.06313 51.3057 0 46.0576 0 40.4731C0 34.8885 1.06313 29.6494 3.18937 24.7556C5.31563 19.8619 8.21813 15.5756 11.8969 11.8969C15.5756 8.21813 19.8709 5.31563 24.7826 3.18937C29.6943 1.06313 34.9424 0 40.5269 0C46.1115 0 51.3506 1.06313 56.2444 3.18937C61.1381 5.31563 65.4244 8.21813 69.1031 11.8969C72.7819 15.5756 75.6844 19.863 77.8106 24.7589C79.9369 29.6548 81 34.886 81 40.4526C81 46.0192 79.9369 51.2663 77.8106 56.1937C75.6844 61.1213 72.7819 65.4244 69.1031 69.1031C65.4244 72.7819 61.137 75.6844 56.2411 77.8106C51.3452 79.9369 46.114 81 40.5474 81ZM40.5 74.925C44.2125 74.925 47.8406 74.385 51.3844 73.305C54.9281 72.225 58.4212 70.335 61.8638 67.635C58.4212 65.205 54.9113 63.3488 51.3338 62.0662C47.7562 60.7837 44.145 60.1425 40.5 60.1425C36.855 60.1425 33.2438 60.7837 29.6663 62.0662C26.0888 63.3488 22.5788 65.205 19.1362 67.635C22.5788 70.335 26.0719 72.225 29.6156 73.305C33.1594 74.385 36.7875 74.925 40.5 74.925ZM40.5 37.4625C42.795 37.4625 44.6681 36.7369 46.1194 35.2856C47.5706 33.8344 48.2962 31.9613 48.2962 29.6663C48.2962 27.3713 47.5706 25.4981 46.1194 24.0469C44.6681 22.5956 42.795 21.87 40.5 21.87C38.205 21.87 36.3319 22.5956 34.8806 24.0469C33.4294 25.4981 32.7038 27.3713 32.7038 29.6663C32.7038 31.9613 33.4294 33.8344 34.8806 35.2856C36.3319 36.7369 38.205 37.4625 40.5 37.4625Z" fill="white"/>
</svg>
